<svg width="29" height="29" viewBox="0 0 29 29" fill="none" xmlns="http://www.w3.org/2000/svg">
    <g clip-path="url(#clip0_2100_25)">
        <mask id="mask0_2100_25" style="mask-type:luminance" maskUnits="userSpaceOnUse" x="7"
            y="-18" width="40" height="40">
            <path d="M7 -18L7 22L47 22L47 -18L7 -18Z" fill="white" />
            <path d="M7 17L7 22L8.5 22L8.5 17L7 17Z" fill="black" />
        </mask>
        <g mask="url(#mask0_2100_25)">
            <path
                d="M21.6318 7.96362L22.7686 9.43628L10.7266 18.7302L19.5996 18.7302L19.5996 20.5896L5.27344 20.5896L21.6318 7.96362Z"
                fill="url(#paint0_linear_2100_25)" />
        </g>
        <path d="M8.5 9.24536L20.0996 9.24536L20.0996 11.1047L8.5 11.1047L8.5 9.24536Z"
            fill="url(#paint1_linear_2100_25)" />
    </g>
    <circle cx="14.5" cy="14.5" r="14" stroke="white" />
    <defs>
        <linearGradient id="paint0_linear_2100_25" x1="18.1226" y1="12.0444" x2="24.9671"
            y2="6.52211" gradientUnits="userSpaceOnUse">
            <stop stop-color="white" />
            <stop offset="0.604072" stop-color="white" stop-opacity="0" />
            <stop offset="1" stop-color="white" stop-opacity="0" />
        </linearGradient>
        <linearGradient id="paint1_linear_2100_25" x1="8.40039" y1="10.1778" x2="16.6254"
            y2="10.209" gradientUnits="userSpaceOnUse">
            <stop stop-color="white" />
            <stop offset="0.475962" stop-color="white" />
            <stop offset="1" stop-color="white" stop-opacity="0" />
        </linearGradient>
        <clipPath id="clip0_2100_25">
            <rect width="29" height="29" fill="white" transform="translate(0 29) rotate(-90)" />
        </clipPath>
    </defs>
</svg>